<?xml version="1.0" standalone="no"?>
<!DOCTYPE svg PUBLIC "-//W3C//DTD SVG 20010904//EN"
 "http://www.w3.org/TR/2001/REC-SVG-20010904/DTD/svg10.dtd">
<svg version="1.0" xmlns="http://www.w3.org/2000/svg"
 width="4167.000000pt" height="4167.000000pt" viewBox="0 0 4167.000000 4167.000000"
 preserveAspectRatio="xMidYMid meet">
<metadata>
Created by potrace 1.14, written by Peter Selinger 2001-2017
</metadata>
<g transform="translate(0.000000,4167.000000) scale(0.100000,-0.100000)"
fill="#000000" stroke="none">
<path d="M20430 41663 c-3602 -65 -7131 -1068 -10215 -2901 -2377 -1414 -4435
-3265 -6082 -5472 -2415 -3237 -3822 -7047 -4088 -11070 -33 -504 -39 -732
-39 -1385 0 -652 6 -875 39 -1385 249 -3807 1528 -7438 3723 -10570 1182
-1686 2631 -3210 4267 -4487 1722 -1343 3664 -2417 5710 -3156 1843 -666 3747
-1064 5705 -1192 510 -33 733 -39 1385 -39 653 0 881 6 1385 39 3425 226 6707
1282 9612 3092 2209 1376 4136 3145 5693 5228 3003 4016 4438 8911 4090 13945
-224 3229 -1214 6389 -2871 9166 -1079 1808 -2420 3441 -3979 4844 -1686 1518
-3620 2759 -5690 3651 -2726 1174 -5650 1747 -8645 1692z m-8080 -16938 l0
-6655 2250 0 2250 0 0 4405 0 4405 885 0 885 0 0 -4405 0 -4405 2385 0 2385 0
-5 23 c-17 76 -82 560 -119 892 -49 433 -80 804 -108 1320 -18 312 -18 1663 0
1955 74 1254 267 2681 508 3765 80 359 46 309 262 381 288 97 654 187 1124
278 529 103 975 159 1568 198 264 18 1297 17 1520 0 714 -55 1248 -152 1760
-317 651 -211 1131 -485 1539 -881 768 -743 1168 -1782 1281 -3329 23 -317 30
-848 30 -2522 l0 -1763 2245 0 2245 0 0 4405 0 4405 890 0 890 0 -2 -5207 -3
-5208 -13331 -3 -13332 -2 -5 -423 c-3 -289 -10 -468 -21 -567 -119 -1064
-507 -1861 -1267 -2606 -686 -671 -1575 -1132 -2679 -1388 -982 -227 -2206
-241 -3241 -36 -1597 317 -2914 1142 -3684 2310 -124 189 -176 279 -272 475
-318 649 -454 1368 -414 2180 43 872 244 2539 496 4124 61 378 258 1631 276
1751 7 41 13 76 14 78 2 3 546 -80 1529 -233 120 -19 220 -35 221 -37 1 -2 -4
-41 -11 -88 -317 -1947 -612 -4161 -711 -5330 -24 -291 -24 -809 0 -974 53
-349 127 -591 268 -876 232 -466 596 -866 1079 -1183 518 -339 1124 -563 1810
-666 593 -89 1300 -89 1905 0 1234 182 2162 766 2612 1644 147 287 227 538
285 890 l23 140 2 7868 3 7867 890 0 890 0 0 -6655z m26688 4998 l2 -973 -900
0 -900 0 0 968 c0 533 3 972 7 975 3 4 407 6 897 5 l891 -3 3 -972z m-20398
-16143 l0 -970 -895 0 -895 0 0 970 0 970 895 0 895 0 0 -970z"/>
<path d="M26905 25264 c-33 -2 -145 -8 -250 -14 -490 -27 -1333 -129 -1369
-165 -23 -23 -137 -737 -206 -1290 -177 -1417 -212 -2577 -115 -3850 42 -550
141 -1376 216 -1812 l11 -63 2890 0 2889 0 -4 2023 c-3 1365 -8 2064 -15 2152
-35 410 -65 642 -118 903 -97 485 -249 862 -466 1154 -73 98 -226 258 -323
338 -355 291 -899 488 -1590 574 -321 41 -466 48 -980 51 -280 1 -537 1 -570
-1z"/>
</g>
</svg>
