<?xml version="1.0" encoding="utf-8"?>
<!-- Generator: Adobe Illustrator 28.4.1, SVG Export Plug-In . SVG Version: 6.00 Build 0)  -->
<svg version="1.1" id="Layer_1" xmlns="http://www.w3.org/2000/svg" xmlns:xlink="http://www.w3.org/1999/xlink" x="0px" y="0px"
	 viewBox="0 0 1000 1000" style="enable-background:new 0 0 1000 1000;" xml:space="preserve">
<style type="text/css">
	.st0{fill:url(#SVGID_1_);}
	.st1{fill:#FFFFFF;}
</style>
<linearGradient id="SVGID_1_" gradientUnits="userSpaceOnUse" x1="146.4466" y1="853.5534" x2="853.5534" y2="146.4466">
	<stop  offset="0" style="stop-color:#A7A9AC"/>
	<stop  offset="0.1313" style="stop-color:#E57E25"/>
	<stop  offset="0.1699" style="stop-color:#D6892F"/>
	<stop  offset="0.275" style="stop-color:#AAA24A"/>
	<stop  offset="0.3651" style="stop-color:#82AF5E"/>
	<stop  offset="0.4356" style="stop-color:#60B66A"/>
	<stop  offset="0.4778" style="stop-color:#4EBA6F"/>
	<stop  offset="0.7279" style="stop-color:#33B671"/>
	<stop  offset="0.7663" style="stop-color:#2CB671"/>
	<stop  offset="0.7927" style="stop-color:#40B56E"/>
	<stop  offset="0.8319" style="stop-color:#62B767"/>
	<stop  offset="0.879" style="stop-color:#89BA5A"/>
	<stop  offset="0.9323" style="stop-color:#B6BF46"/>
	<stop  offset="0.9901" style="stop-color:#E7C322"/>
	<stop  offset="1" style="stop-color:#F0C419"/>
</linearGradient>
<circle class="st0" cx="500" cy="500" r="500"/>
<g>
	<path class="st1" d="M160.34,728.88c-26.67,0-50.75-4.92-72.25-14.75c-21.5-9.84-38.5-23.5-51-41s-18.75-37.42-18.75-59.75
		c0-7,0.58-16.25,1.75-27.75c1.16-11.5,2.66-24.25,4.5-38.25c1.83-14,3.91-28.25,6.25-42.75c2.33-14.5,4.5-28.25,6.5-41.25l42,6.5
		c-3.67,22.67-6.84,43.75-9.5,63.25c-2.67,19.5-4.75,36.09-6.25,49.75c-1.5,13.67-2.25,23.83-2.25,30.5c0,15,4.08,28.25,12.25,39.75
		c8.16,11.5,19.75,20.58,34.75,27.25c15,6.66,32.33,10,52,10c19.66,0,36.5-3.09,50.5-9.25c14-6.17,24.66-14.84,32-26
		c7.33-11.17,11-24.09,11-38.75v-369.5h42.5v369.5c0,23.33-6.09,43.41-18.25,60.25c-12.17,16.83-28.5,29.75-49,38.75
		S185.67,728.88,160.34,728.88z M296.34,604.88v-38.5h54v38.5H296.34z M350.34,604.88v-38.5c2,0,3.66,0.42,5,1.25
		c1.33,0.84,2.33,2.09,3,3.75c0.66,1.67,1.16,3.67,1.5,6c0.33,2.34,0.5,5,0.5,8s-0.17,5.75-0.5,8.25c-0.34,2.5-0.84,4.59-1.5,6.25
		c-0.67,1.67-1.67,2.92-3,3.75C354.01,604.46,352.34,604.88,350.34,604.88z"/>
	<path class="st1" d="M350.34,604.88c-2,0-3.66-0.41-5-1.25c-1.33-0.83-2.33-2.08-3-3.75c-0.66-1.66-1.16-3.75-1.5-6.25
		c-0.33-2.5-0.5-5.25-0.5-8.25c0-4,0.25-7.33,0.75-10c0.5-2.66,1.5-4.83,3-6.5c1.5-1.66,3.59-2.5,6.25-2.5V604.88z M350.34,604.88
		v-38.5h74.5l-20.5,17v-228.5h42.5v250H350.34z M404.34,697.38v-46.5h43v46.5H404.34z M446.84,604.88v-38.5h54v38.5H446.84z
		 M500.84,604.88v-38.5c2,0,3.66,0.42,5,1.25c1.33,0.84,2.33,2.09,3,3.75c0.66,1.67,1.16,3.67,1.5,6c0.33,2.34,0.5,5,0.5,8
		s-0.17,5.75-0.5,8.25c-0.34,2.5-0.84,4.59-1.5,6.25c-0.67,1.67-1.67,2.92-3,3.75C504.51,604.46,502.84,604.88,500.84,604.88z"/>
	<path class="st1" d="M500.84,604.88c-2,0-3.66-0.41-5-1.25c-1.33-0.83-2.33-2.08-3-3.75c-0.66-1.66-1.16-3.75-1.5-6.25
		c-0.33-2.5-0.5-5.25-0.5-8.25c0-4,0.25-7.33,0.75-10c0.5-2.66,1.5-4.83,3-6.5c1.5-1.66,3.59-2.5,6.25-2.5V604.88z M500.84,604.88
		v-38.5h271.5l-29,21v-105c0-22.66-2.59-40.5-7.75-53.5c-5.17-13-14-22.16-26.5-27.5c-12.5-5.33-29.42-8-50.75-8
		c-14,0-27.84,0.92-41.5,2.75c-13.67,1.84-24.34,4.42-32,7.75l26-26c-2,8-4,18.09-6,30.25c-2,12.17-3.67,25.17-5,39
		c-1.34,13.84-2,27.59-2,41.25c0,14,0.66,27.84,2,41.5c1.33,13.67,2.83,25.42,4.5,35.25c1.66,9.84,3,16.75,4,20.75l-40.5,11.5
		c-1.34-4.33-3-11.83-5-22.5c-2-10.66-3.75-23.5-5.25-38.5s-2.25-31-2.25-48c0-16.33,0.83-32.25,2.5-47.75
		c1.66-15.5,3.58-29.58,5.75-42.25c2.16-12.66,4.25-22.83,6.25-30.5c7.33-3,19.08-6,35.25-9c16.16-3,33.91-4.5,53.25-4.5
		c28.33,0,52,4.17,71,12.5c19,8.34,33.16,21.84,42.5,40.5c9.33,18.67,14,43.67,14,75v122.5H500.84z M785.84,604.88v-38.5h54v38.5
		H785.84z M839.84,604.88v-38.5c2,0,3.66,0.42,5,1.25c1.33,0.84,2.33,2.09,3,3.75c0.66,1.67,1.16,3.67,1.5,6c0.33,2.34,0.5,5,0.5,8
		s-0.17,5.75-0.5,8.25c-0.34,2.5-0.84,4.59-1.5,6.25c-0.67,1.67-1.67,2.92-3,3.75C843.51,604.46,841.84,604.88,839.84,604.88z"/>
	<path class="st1" d="M839.84,604.88c-2,0-3.66-0.41-5-1.25c-1.33-0.83-2.33-2.08-3-3.75c-0.66-1.66-1.16-3.75-1.5-6.25
		c-0.33-2.5-0.5-5.25-0.5-8.25c0-4,0.25-7.33,0.75-10c0.5-2.66,1.5-4.83,3-6.5c1.5-1.66,3.59-2.5,6.25-2.5V604.88z M839.84,604.88
		v-38.5h74.5l-20.5,17v-228.5h42.5v250H839.84z M893.84,309.88v-46.5h43v46.5H893.84z"/>
</g>
</svg>
